<svg id="Capa_1" data-name="Capa 1" xmlns="http://www.w3.org/2000/svg" width="40.83" height="39.29" viewBox="0 0 40.83 39.29"><defs><style>.cls-1{fill:#262b2e;}</style></defs><title>hamburger-n</title><path class="cls-1" d="M39.51,0H1.32A1.32,1.32,0,0,0,0,1.32V7.18A1.32,1.32,0,0,0,1.32,8.5H39.51a1.32,1.32,0,0,0,1.32-1.32V1.32A1.32,1.32,0,0,0,39.51,0Z"/><path class="cls-1" d="M39.51,15.39H1.32A1.32,1.32,0,0,0,0,16.71v5.87A1.32,1.32,0,0,0,1.32,23.9H39.51a1.32,1.32,0,0,0,1.32-1.32V16.71A1.32,1.32,0,0,0,39.51,15.39Z"/><path class="cls-1" d="M39.51,30.79H1.32A1.32,1.32,0,0,0,0,32.11V38a1.32,1.32,0,0,0,1.32,1.32H39.51A1.32,1.32,0,0,0,40.83,38V32.11A1.32,1.32,0,0,0,39.51,30.79Z"/></svg>