<svg id="Слой_1" data-name="Слой 1" xmlns="http://www.w3.org/2000/svg" width="21.9" height="21.9" viewBox="0 0 21.9 21.9"><defs><style>.cls-1{fill:#fff;}</style></defs><title>cancel-n</title><path class="cls-1" d="M14.1,11.3a0.48,0.48,0,0,1,0-.7l7.5-7.5a1.08,1.08,0,0,0,.3-0.7,1.08,1.08,0,0,0-.3-0.7L20.2,0.3A1.08,1.08,0,0,0,19.5,0a0.91,0.91,0,0,0-.7.3L11.3,7.8a0.48,0.48,0,0,1-.7,0L3.1,0.3A1.08,1.08,0,0,0,2.4,0a1.08,1.08,0,0,0-.7.3L0.3,1.7a1.08,1.08,0,0,0-.3.7,1.08,1.08,0,0,0,.3.7l7.5,7.5a0.48,0.48,0,0,1,0,.7L0.3,18.8a1,1,0,0,0,0,1.4l1.4,1.4a1.08,1.08,0,0,0,.7.3,1.08,1.08,0,0,0,.7-0.3l7.5-7.5a0.48,0.48,0,0,1,.7,0l7.5,7.5a1,1,0,0,0,1.4,0l1.4-1.4a1,1,0,0,0,0-1.4Z"/></svg>